<svg xmlns="http://www.w3.org/2000/svg" width="1200" height="630" viewBox="0 0 1200 630" preserveAspectRatio="xMidYMid slice">
  <defs>
    <linearGradient id="ux-bg" x1="0%" y1="10%" x2="100%" y2="90%">
      <stop offset="0%" stop-color="#10172b" />
      <stop offset="55%" stop-color="#25345a" />
      <stop offset="100%" stop-color="#1b75d1" />
    </linearGradient>
    <linearGradient id="ux-line" x1="0%" y1="0%" x2="100%" y2="0%">
      <stop offset="0%" stop-color="#8de3ff" stop-opacity="0.8" />
      <stop offset="100%" stop-color="#2b9fe6" stop-opacity="0.4" />
    </linearGradient>
  </defs>
  <rect width="1200" height="630" fill="url(#ux-bg)" />
  <g opacity="0.2" stroke="#7fe0ff" stroke-width="2" fill="none">
    <path d="M80 520 L1120 520" />
    <path d="M80 420 L1120 420" />
    <path d="M80 320 L1120 320" />
    <path d="M80 220 L1120 220" />
    <path d="M80 120 L1120 120" />
  </g>
  <polyline points="120,470 260,340 380,380 520,260 700,290 840,210 1040,260" fill="none" stroke="url(#ux-line)" stroke-width="18" stroke-linecap="round" stroke-linejoin="round" />
  <circle cx="260" cy="340" r="22" fill="#7fe0ff" opacity="0.8" />
  <circle cx="520" cy="260" r="18" fill="#7fe0ff" opacity="0.8" />
  <circle cx="840" cy="210" r="18" fill="#7fe0ff" opacity="0.8" />
  <g font-family="'Poppins','Segoe UI',sans-serif" fill="#ffffff">
    <text x="120" y="180" font-size="60" font-weight="700">UX Performance Playbook</text>
    <text x="120" y="240" font-size="46" font-weight="300">For Lightning-Fast Websites</text>
  </g>
  <text x="120" y="290" font-family="'Poppins','Segoe UI',sans-serif" font-size="24" fill="#8de3ff" letter-spacing="3">SpaceCatWeb LAB · 2026</text>
</svg>
