<svg width="220" height="220" viewBox="0 0 220 220" xmlns="http://www.w3.org/2000/svg" role="img" aria-labelledby="title desc">
  <title id="title">SaaS dashboard illustration</title>
  <desc id="desc">Stylized dashboard with charts and panels representing a SaaS redesign.</desc>
  <defs>
    <linearGradient id="bg" x1="0%" y1="0%" x2="100%" y2="100%">
      <stop offset="0%" stop-color="#03a4ed" />
      <stop offset="100%" stop-color="#fe3f40" />
    </linearGradient>
    <linearGradient id="panel" x1="0%" y1="0%" x2="100%" y2="0%">
      <stop offset="0%" stop-color="#f8fbff" />
      <stop offset="100%" stop-color="#e2efff" />
    </linearGradient>
  </defs>
  <rect width="220" height="220" rx="36" fill="url(#bg)" opacity="0.15" />
  <rect x="26" y="40" width="168" height="120" rx="20" fill="#ffffff" stroke="#e1ecf7" stroke-width="2" />
  <rect x="46" y="60" width="128" height="18" rx="9" fill="#e3f4ff" />
  <rect x="46" y="90" width="88" height="80" rx="14" fill="url(#panel)" />
  <rect x="144" y="90" width="30" height="30" rx="8" fill="#e7f2ff" />
  <rect x="144" y="130" width="30" height="40" rx="8" fill="#feefe9" />
  <path d="M52 134 C64 120 76 160 88 148 C100 136 112 166 124 142" stroke="#03a4ed" stroke-width="6" fill="none" stroke-linecap="round" stroke-linejoin="round" />
  <circle cx="60" cy="132" r="5" fill="#03a4ed" />
  <circle cx="88" cy="150" r="5" fill="#03a4ed" />
  <circle cx="116" cy="142" r="5" fill="#03a4ed" />
  <rect x="70" y="192" width="80" height="12" rx="6" fill="#03a4ed" opacity="0.6" />
</svg>
