<svg width="220" height="220" viewBox="0 0 220 220" xmlns="http://www.w3.org/2000/svg" role="img" aria-labelledby="title desc">
  <title id="title">Fintech mobile suite illustration</title>
  <desc id="desc">Mobile devices with charts representing a fintech experience.</desc>
  <defs>
    <linearGradient id="fintechBg" x1="0%" y1="0%" x2="100%" y2="100%">
      <stop offset="0%" stop-color="#fe3f40" />
      <stop offset="100%" stop-color="#03a4ed" />
    </linearGradient>
  </defs>
  <rect width="220" height="220" rx="36" fill="url(#fintechBg)" opacity="0.18" />
  <rect x="56" y="42" width="64" height="136" rx="20" fill="#ffffff" stroke="#e5f0ff" stroke-width="2" />
  <rect x="100" y="58" width="80" height="112" rx="22" fill="#ffffff" stroke="#d9e8ff" stroke-width="2" />
  <rect x="68" y="60" width="40" height="12" rx="6" fill="#03a4ed" opacity="0.2" />
  <rect x="68" y="82" width="40" height="72" rx="12" fill="#f8fbff" />
  <rect x="116" y="82" width="48" height="12" rx="6" fill="#03a4ed" opacity="0.2" />
  <rect x="116" y="104" width="48" height="12" rx="6" fill="#03a4ed" opacity="0.4" />
  <rect x="116" y="126" width="48" height="12" rx="6" fill="#03a4ed" />
  <path d="M122 158 C132 144 140 170 150 154 C160 138 170 174 180 152" stroke="#fe3f40" stroke-width="6" fill="none" stroke-linecap="round" stroke-linejoin="round" />
  <circle cx="128" cy="158" r="5" fill="#fe3f40" />
  <circle cx="150" cy="154" r="5" fill="#fe3f40" />
  <circle cx="170" cy="152" r="5" fill="#fe3f40" />
  <rect x="96" y="192" width="56" height="10" rx="5" fill="#03a4ed" opacity="0.7" />
</svg>
